<?xml version="1.0" encoding="utf-8"?>
<!-- Generator: Adobe Illustrator 24.1.2, SVG Export Plug-In . SVG Version: 6.00 Build 0)  -->
<svg version="1.1" id="trazado" xmlns="http://www.w3.org/2000/svg" xmlns:xlink="http://www.w3.org/1999/xlink" x="0px" y="0px"
	 viewBox="0 0 792 207.8" style="enable-background:new 0 0 792 207.8;" xml:space="preserve">
<style type="text/css">
	.st0{display:none;fill:#ADAAA7;}
	.st1{fill:#010202;}
</style>
<path class="st0" d="M454.6-116.5c-3.4,12.1-10.8,24-24.1,39.2c-12.4-10.4-26.9-16.5-43.2-16.5c-3.4,12.2-11.5,24-26.5,40.3
	c-10.4-8.6-22.4-13.7-36-13.7C321-53.8,310.6-41,289.3-19.7c-12.5,12.5-62.6,60.1-62.6,111.8c0,51.7,34.4,124.4,77.9,124.4
	c3.2,0,6.4-0.2,9.5-0.6c14.2,16.6,31.1,27.3,49.3,27.3c5,0,9.9-0.5,14.7-1.3c14.7,14.8,31.5,24,49.5,24
	c80,0,138.7-100.2,138.7-191.2C566.2-11.4,526.6-116.5,454.6-116.5z"/>
<g>
	<path class="st1" d="M218.4,140.9c0,0,0-41.5,0-46.3c0-14-16.9-34.5-40.3-34.5c-22.1,0-42.3,17.3-42.3,40.4
		c0,23.6,18,42.9,41.5,42.9c14.4,0,22.4-6.1,25.8-9.5c0-5.3,0-8.3,0-13.8c-2.7,2.7-11.3,11.7-25.8,11.7c-14.9,0-29.6-12.1-29.6-30.1
		c0-17.7,13.9-30.8,29.6-30.8c15.2,0,30.2,13.2,30.2,24.3c0,9.9,0,45.6,0,45.6H218.4z"/>
	<path class="st1" d="M656.2,30.3c0,0,0,73.8,0,78.5c0,14-16.9,34.5-40.3,34.5c-22.1,0-42.3-17.3-42.3-40.4
		c0-23.6,18-42.9,41.5-42.9c14.4,0,22.4,6.1,25.8,9.5c0,5.3,0,8.3,0,13.8c-2.7-2.7-11.3-11.7-25.8-11.7c-14.9,0-29.6,12.1-29.6,30.1
		c0,17.7,13.9,30.8,29.6,30.8c15.2,0,30.2-13.2,30.2-24.3c0-9.9,0-77.9,0-77.9H656.2z"/>
	<g>
		<rect x="233.9" y="60.1" class="st1" width="12.1" height="80.8"/>
		<circle class="st1" cx="239.9" cy="37.9" r="7.5"/>
	</g>
	<rect x="549.8" y="30.3" class="st1" width="12.1" height="110.6"/>
	<g>
		<rect x="439.2" y="60.1" class="st1" width="12.1" height="80.8"/>
		<circle class="st1" cx="445.2" cy="37.9" r="7.5"/>
	</g>
	<path class="st1" d="M506.1,131.3c-9.3,0-14.6-1.5-19.5-6.5c0,0,46.6-36.2,54.9-42.7c0-7.3-12.7-23.1-35.8-23.1
		c-23.5,0-42.5,19-42.5,42.5c0,12.3,4.8,21.8,10.4,27.3c9.3,9.3,19.8,14.3,32.2,14.3c12.6,0,26.8-5.4,32.1-8.2l-3.8-10.7
		C526.8,128.5,511.4,131.3,506.1,131.3z M474.4,100.5c0-16.9,13.7-30.7,30.7-30.7c14,0,20.9,10.7,20.9,10.7l-46.1,36.2
		C479.9,116.7,474.4,112.9,474.4,100.5z"/>
	<path class="st1" d="M261.2,140.9c0,0,0-33.7,0-43.8c0-26,17.5-37,39.6-37v11.4c-18.9,0-28,9.7-28,24.8c0,18.4,0,44.6,0,44.6H261.2
		z"/>
	<path class="st1" d="M345,60.1v10.7c-18.1,0-21.2,10.8-21.2,32.9c0,25.8-11,38.4-32.6,38.4v-10.9c16.4,0,21.5-8.8,21.5-27.6
		C312.7,75.3,318.1,60.1,345,60.1z"/>
	<path class="st1" d="M352.2,30.3v110.6h11.7c0,0,0-43.1,0-49.7c0-9.2,12.5-20.1,25.2-20.1c13,0,22.4,7.5,22.4,18.1
		c0,7.4,0,51.7,0,51.7h11.7c0,0,0-41.3,0-51.7c0-15-13.1-29.1-33.4-29.1c-8,0-20.4,2.7-25.7,11V30.3H352.2z"/>
</g>
</svg>
